PathFileType	4	(X/Y/Z)	69_1_8_p0_0-174.trc
DataRate	CameraRate	NumFrames	NumMarkers	Units	OrigDataRate	OrigDataStartFrame	OrigNumFrames
60.0	60.0	5	27	m	60.0	65	175
Frame#	Time	RHip			RKnee			RAnkle			RBigToe			RSmallToe			RHeel			LHip			LKnee			LAnkle			LBigToe			LSmallToe			LHeel			Neck			Head			Nose			RShoulder			RElbow			RWrist			RThumb			RIndex			RPinky			LShoulder			LElbow			LWrist			LThumb			LIndex			LPinky			
		X1	Y1	Z1	X2	Y2	Z2	X3	Y3	Z3	X4	Y4	Z4	X5	Y5	Z5	X6	Y6	Z6	X7	Y7	Z7	X8	Y8	Z8	X9	Y9	Z9	X10	Y10	Z10	X11	Y11	Z11	X12	Y12	Z12	X13	Y13	Z13	X14	Y14	Z14	X15	Y15	Z15	X16	Y16	Z16	X17	Y17	Z17	X18	Y18	Z18	X19	Y19	Z19	X20	Y20	Z20	X21	Y21	Z21	X22	Y22	Z22	X23	Y23	Z23	X24	Y24	Z24	X25	Y25	Z25	X26	Y26	Z26	X27	Y27	Z27	
65	1.0833333333333333	0.2781632094388298	0.5159159264121719	0.48980370737501416	0.2533032091564309	0.5542558075601874	0.9193917694772848	0.22609410018635415	0.5704486165649868	1.3125714888157307	0.25378266535700034	0.44698888434081496	1.3424491055002459	0.313056175289381	0.48223234553952576	1.3360635777386178	0.17855235517819817	0.6537342561668467	1.3829114860836147	0.09424644548788019	0.4808440168133144	0.4965665767310079	0.05231544397808768	0.5138180283689284	0.9188743548528394	0.03122979354880564	0.5602974431238825	1.3270702084151085	0.10951179174483265	0.37652283050633384	1.3111980079681222	0.0373009149210623	0.4257834322171355	1.3310141609807828	0.032447229222162345	0.5822946956906002	1.3750611060976892	0.2055109524524094	0.5231822581565694	-0.011340862034507373	0.25060474748121186	0.4845550913334388	-0.2560740694245379	0.25764627156868547	0.42819262490661947	-0.13585138373505434	0.35263953165501133	0.5522398107878876	0.0754935589509811	0.35076900089123675	0.5126224133836287	0.3157285300322845	0.312371201108077	0.3279398004499196	0.45807423961740035	0.2606642273738866	0.2653336068188985	0.5324996995854276	0.24716418345586041	0.28439039307386577	0.5696064078705919	0.24973595751526048	0.31345998425899885	0.5783151941458278	0.06835009792746541	0.4733338048801208	0.0463875264166137	0.07788722644090876	0.4000678607618057	0.2743859350896126	0.20244286094604869	0.27984816476620694	0.44437707173874563	0.27772619894945044	0.2466277962354062	0.49828843893866837	0.25251587379557683	0.2642513565949939	0.5447273466016881	0.2310536736612351	0.2684200173839833	0.5580211283296488
66	1.1	0.2866239063084724	0.5039988755258334	0.4860872471345642	0.25338796243895123	0.5540333969579406	0.9194202128508802	0.22610668657809682	0.5704950382366616	1.312508582216556	0.24998416287991515	0.4431811302072004	1.3411761287387127	0.31311054557332085	0.4818063354598287	1.335920305598282	0.18054426202202378	0.6704625836077587	1.386945590171115	0.09861479812925472	0.48444388445814235	0.498525951650765	0.05302566737600073	0.5125741792217481	0.9229083486317251	0.031276113227384356	0.5602892070830108	1.3268953722953394	0.11071543022688364	0.37635359331900403	1.3068150878178708	0.03731313790931187	0.42561501113234557	1.3309726726651927	0.03380679563149377	0.5824165821910796	1.3700295161426166	0.2139936643833034	0.5123300692686464	-0.012591991076749782	0.25058791501858213	0.48464135181993323	-0.256048263543669	0.25759832134417937	0.428256486808089	-0.13586618071358716	0.35292903588113295	0.5525445527113412	0.07170437605667031	0.3512962443196198	0.5008001420135906	0.3133373881426092	0.31238686107036906	0.32780157279870975	0.45809426996701547	0.2550854253213054	0.27822968968550094	0.541044265969476	0.24708777051626085	0.28557963010620285	0.5739739072146612	0.2581160970280941	0.303176553734269	0.5745422586944301	0.06831916759864777	0.4734202580785582	0.04638065571345671	0.07837837918291898	0.3993550652145854	0.27840071358339785	0.2025475892598041	0.2798383760906554	0.4443435372010532	0.27722789935893516	0.24644629838021637	0.5015951344999947	0.2611675375573956	0.2547228200371967	0.541039908212861	0.23172195201155252	0.26789134723926933	0.558001805396229
67	1.1166666666666667	0.28664134729432184	0.5041351214395672	0.485897282844009	0.25341634716648803	0.5542349540254394	0.9191105522944992	0.22494455960657042	0.5844277810953677	1.319723426031855	0.2501377088129332	0.44509958946291706	1.3462842360753848	0.31307937739927566	0.4818276961265397	1.3360982801942265	0.17848456166514287	0.6515427937172167	1.3776562926955804	0.09809981904252049	0.48302045416907385	0.4965196088389207	0.05251660903568294	0.5117785256715982	0.9133451443231191	0.030541614736673103	0.5616881587158635	1.32362682289181	0.11073773548589293	0.3763138630228835	1.3067305497051733	0.037416602100396386	0.4255102229971605	1.3306880274346793	0.03379274131983531	0.5823109950506862	1.370190335214288	0.21401267707294774	0.5122912088749545	-0.01267708659819644	0.2506106738373928	0.48462641513985555	-0.2560571069139838	0.25763807259256244	0.42833232620816913	-0.13587324507334736	0.3529490345738704	0.5525279265549189	0.07170214731329286	0.35087972234200576	0.5124250664502533	0.3157800993090824	0.3124146679909986	0.32766952039967145	0.4581933215949085	0.25575830878826	0.26525094652161485	0.5330660315855688	0.2393201473421807	0.2837772150805037	0.5707912427602195	0.2498505848630417	0.3126769651642787	0.5783645251953072	0.06828316174089522	0.4733724117646781	0.04645002646539177	0.07816598008530766	0.3989091327024271	0.28164688156523177	0.20252233818655532	0.2786071614628339	0.440109999108507	0.2771853449961593	0.24374988287718016	0.493115897836641	0.2609608069096124	0.2545538194028058	0.540854126572731	0.23177951147688924	0.26797043547832206	0.5580062977036766
68	1.1333333333333333	0.28593030829597327	0.5042157866045422	0.4898722844521341	0.2534144955076561	0.5538503563674663	0.9193389241585124	0.22490489528175295	0.5846554863323458	1.319923527403951	0.2540789238672752	0.44584146817279513	1.341845183462888	0.31390388769743993	0.4797765626674615	1.3396151504056433	0.17694141333614705	0.6670258689109941	1.385985390900683	0.0971431867184125	0.4844320666155438	0.5052405130234636	0.05225625252597362	0.5159015388611614	0.9247922041002657	0.030493478159611603	0.5616767135141046	1.32364107932446	0.11075858420268032	0.37621391206052324	1.3066116991158285	0.03742529105908549	0.4255063340210145	1.3306229662427407	0.03377024750985051	0.5821845009860057	1.3702123518354283	0.21405960961929066	0.512192981432148	-0.012698715510625487	0.2505876256070486	0.4846812188264415	-0.2561283696066817	0.25755359643536646	0.42850823766959234	-0.1359354540477654	0.3529709382362119	0.5524587217336856	0.0716545715172168	0.3508535094416587	0.5126488103301381	0.3158283648001566	0.31234262464679446	0.3276237755940211	0.4581769712581118	0.26137023476122656	0.2532305052761528	0.5291082307470973	0.24752110418022558	0.274381985305737	0.5670350099274963	0.24982581457373487	0.3129717546863146	0.5782240876080469	0.07010931715806747	0.46164497298842605	0.0450438183125675	0.08686620688932575	0.388628199944759	0.2791656502505898	0.20260714879179115	0.27860170496655084	0.44007979640944067	0.2773260563603953	0.24360193038723751	0.49321130397996177	0.26915087852088176	0.24542722193637198	0.5371963811918594	0.23111064635539255	0.26881815488659966	0.5551628281628822
69	1.15	0.28596179764518265	0.5040100264197426	0.4897756477406515	0.2544340530522166	0.5399834962917216	0.9143134881163125	0.22609371010371532	0.5705346069780354	1.3126953588976809	0.2541733634187871	0.44811330040158376	1.3471316611773834	0.3131902661356857	0.4817324515737066	1.3360437128708216	0.18187012360356358	0.6585707204270979	1.3848377986600164	0.09604774246981339	0.4981385654338268	0.5053515077743025	0.052334471675990625	0.5136859486694842	0.9188662876601021	0.03057556429533167	0.5616019982205569	1.3237889949244694	0.11067632510644854	0.37626512415706803	1.306681247476905	0.037302079740412164	0.4256143056770633	1.3307734935343414	0.03381646606256721	0.5820732350190829	1.3701916109615226	0.21430789918563417	0.5124715648674739	-0.01589084244305562	0.2505456600069074	0.48472628401140294	-0.2593339767810069	0.2575496404199426	0.4283969263102117	-0.1359869081911151	0.35296963731897685	0.5525477191229456	0.07168992482156217	0.35077424048006783	0.5128237959239991	0.31571438308993294	0.3123326233333618	0.3279064448545871	0.4580711674542411	0.2537765913390886	0.27762722742143026	0.536471587230868	0.23873580030885871	0.2837536823761143	0.574372600445045	0.26649785161770473	0.2938073490348456	0.5671387698883382	0.06829886296679434	0.4734681705199853	0.046411977787175686	0.08746668815870107	0.3885000224521739	0.27612638002423806	0.20267383194665825	0.27862305732041825	0.4400599209589275	0.2687085508303535	0.2533910172573232	0.4998879778587829	0.2607240529703336	0.2554120831539565	0.5376662891541453	0.23078285278766614	0.2693954817539557	0.552260193670834
